<svg width="215" height="79" viewBox="0 0 215 79" fill="none" xmlns="http://www.w3.org/2000/svg">
<path d="M58.957 37.7594C57.1134 34.2893 54.3746 27.5337 57.0651 20.32C61.4791 8.4849 78.7979 -0.0013051 99.6403 1.09812C102.408 15.5367 95.5873 29.0632 82.7359 35.0981C74.0793 39.1634 65.1116 38.69 60.8645 38.2051C65.213 35.5099 70.0942 32.047 74.9738 27.663C82.5055 20.8967 87.5328 14.1822 90.8599 8.82482C86.0798 14.2769 80.3357 20.1669 73.4727 26.1848C68.5209 30.5274 63.6298 34.3719 58.957 37.7594Z" fill="#39B54A"/>
<path d="M53.4006 38.1365C50.1483 38.9404 43.8883 39.9987 37.6826 37.7793C27.5014 34.1378 21.4071 23.0838 24.164 10.7448C37.2797 10.3242 48.7646 15.5455 53.0528 23.7254C55.9414 29.2356 54.7551 34.5443 53.9605 37.0367C51.9268 34.2132 49.2538 31.0064 45.7586 27.7221C40.3648 22.6531 34.804 19.0818 30.3081 16.6407C34.7644 19.9566 39.529 23.8847 44.3127 28.4914C47.7644 31.8155 50.7772 35.0606 53.4006 38.1365Z" fill="#39B54A"/>
<path d="M3.02145 66.332V31.5684H26.0388V37.6283H10.3714V45.9118H24.5111V51.9717H10.3714V66.332H3.02145ZM37.9548 66.8243C36.2913 66.8243 34.8089 66.5357 33.5075 65.9586C32.2062 65.3701 31.1764 64.5044 30.4182 63.3615C29.6713 62.2072 29.2979 60.7701 29.2979 59.05C29.2979 57.6015 29.5638 56.385 30.0957 55.4005C30.6275 54.416 31.3518 53.6238 32.2684 53.0241C33.185 52.4243 34.2261 51.9717 35.3917 51.6661C36.5686 51.3606 37.8021 51.1456 39.0921 51.0211C40.6085 50.8627 41.8307 50.7155 42.7586 50.5798C43.6865 50.4326 44.3598 50.2176 44.7786 49.9347C45.1973 49.6518 45.4066 49.2331 45.4066 48.6786V48.5768C45.4066 47.5017 45.0671 46.67 44.3881 46.0815C43.7205 45.4931 42.7699 45.1989 41.5364 45.1989C40.2351 45.1989 39.1996 45.4874 38.4301 46.0646C37.6606 46.6304 37.1514 47.3433 36.9024 48.2033L30.2145 47.6601C30.554 46.0759 31.2216 44.7066 32.2175 43.5523C33.2133 42.3868 34.4977 41.4928 36.0707 40.8704C37.6549 40.2367 39.4882 39.9198 41.5704 39.9198C43.0189 39.9198 44.4051 40.0896 45.7291 40.429C47.0644 40.7685 48.247 41.2947 49.2768 42.0077C50.3179 42.7206 51.1383 43.6372 51.7381 44.7575C52.3378 45.8665 52.6377 47.1962 52.6377 48.7465V66.332H45.78V62.7165H45.5763C45.1576 63.5312 44.5975 64.2498 43.8959 64.8722C43.1943 65.4833 42.3512 65.9642 41.3667 66.315C40.3822 66.6545 39.2449 66.8243 37.9548 66.8243ZM40.0257 61.8338C41.0894 61.8338 42.0287 61.6244 42.8435 61.2057C43.6582 60.7757 44.2976 60.1986 44.7616 59.4744C45.2255 58.7501 45.4575 57.9297 45.4575 57.0131V54.2462C45.2312 54.3933 44.92 54.5291 44.5239 54.6536C44.1392 54.7668 43.7035 54.8743 43.2169 54.9761C42.7303 55.0667 42.2437 55.1515 41.7571 55.2307C41.2705 55.2986 40.8292 55.3609 40.4331 55.4175C39.5844 55.5419 38.8432 55.74 38.2094 56.0116C37.5757 56.2832 37.0835 56.6509 36.7327 57.1149C36.3819 57.5676 36.2065 58.1334 36.2065 58.8124C36.2065 59.7969 36.5629 60.5494 37.2759 61.0699C38.0001 61.5792 38.9167 61.8338 40.0257 61.8338ZM58.2478 66.332V40.2593H65.2582V44.8084H65.5298C66.0051 43.1902 66.8029 41.9681 67.9232 41.142C69.0435 40.3046 70.3336 39.8859 71.7934 39.8859C72.1555 39.8859 72.5459 39.9085 72.9646 39.9538C73.3833 39.999 73.7511 40.0613 74.0679 40.1405V46.5568C73.7284 46.455 73.2588 46.3644 72.6591 46.2852C72.0593 46.206 71.5104 46.1664 71.0125 46.1664C69.9488 46.1664 68.9982 46.3984 68.1608 46.8624C67.3347 47.315 66.6784 47.9487 66.1918 48.7635C65.7165 49.5783 65.4789 50.5175 65.4789 51.5812V66.332H58.2478ZM77.8066 66.332V40.2593H84.6982V44.8594H85.0037C85.5469 43.3317 86.4522 42.1265 87.7196 41.2438C88.987 40.3611 90.5034 39.9198 92.2688 39.9198C94.0567 39.9198 95.5788 40.3668 96.8349 41.2608C98.091 42.1435 98.9284 43.343 99.3471 44.8594H99.6187C100.151 43.3656 101.112 42.1717 102.504 41.2778C103.908 40.3725 105.565 39.9198 107.478 39.9198C109.911 39.9198 111.886 40.695 113.402 42.2453C114.93 43.7843 115.693 45.9684 115.693 48.7974V66.332H108.479V50.2233C108.479 48.7748 108.095 47.6884 107.325 46.9642C106.556 46.24 105.594 45.8778 104.439 45.8778C103.127 45.8778 102.103 46.2965 101.367 47.1339C100.632 47.96 100.264 49.0521 100.264 50.41V66.332H93.2533V50.0705C93.2533 48.7918 92.8855 47.7733 92.1499 47.0151C91.4257 46.2569 90.4695 45.8778 89.2813 45.8778C88.4778 45.8778 87.7536 46.0815 87.1085 46.4889C86.4748 46.885 85.9713 47.4451 85.5978 48.1694C85.2244 48.8823 85.0377 49.7197 85.0377 50.6816V66.332H77.8066ZM127.533 66.332H119.657L131.658 31.5684H141.13L153.114 66.332H145.237L136.53 39.5124H136.258L127.533 66.332ZM127.041 52.6676H145.645V58.405H127.041V52.6676ZM157.162 76.1093V40.2593H164.291V44.6387H164.614C164.931 43.9371 165.389 43.2242 165.989 42.4999C166.6 41.7644 167.392 41.1533 168.365 40.6667C169.35 40.1688 170.572 39.9198 172.032 39.9198C173.933 39.9198 175.687 40.4177 177.294 41.4136C178.901 42.3981 180.185 43.8862 181.147 45.8778C182.109 47.8582 182.59 50.3421 182.59 53.3296C182.59 56.2379 182.12 58.6935 181.181 60.6965C180.253 62.6882 178.985 64.1989 177.379 65.2287C175.783 66.2472 173.995 66.7564 172.015 66.7564C170.611 66.7564 169.418 66.5244 168.433 66.0604C167.46 65.5965 166.662 65.0137 166.04 64.3121C165.417 63.5991 164.942 62.8806 164.614 62.1563H164.393V76.1093H157.162ZM164.24 53.2957C164.24 54.846 164.455 56.1983 164.885 57.3525C165.315 58.5068 165.938 59.4065 166.753 60.0515C167.567 60.6852 168.558 61.0021 169.723 61.0021C170.9 61.0021 171.896 60.6795 172.711 60.0345C173.525 59.3782 174.142 58.4729 174.561 57.3186C174.991 56.153 175.206 54.812 175.206 53.2957C175.206 51.7906 174.996 50.4666 174.578 49.3236C174.159 48.1807 173.542 47.2867 172.728 46.6417C171.913 45.9967 170.911 45.6741 169.723 45.6741C168.546 45.6741 167.55 45.9853 166.736 46.6077C165.932 47.2301 165.315 48.1128 164.885 49.2557C164.455 50.3987 164.24 51.7453 164.24 53.2957ZM187.41 76.1093V40.2593H194.54V44.6387H194.862C195.179 43.9371 195.637 43.2242 196.237 42.4999C196.848 41.7644 197.64 41.1533 198.614 40.6667C199.598 40.1688 200.82 39.9198 202.28 39.9198C204.181 39.9198 205.935 40.4177 207.542 41.4136C209.149 42.3981 210.433 43.8862 211.395 45.8778C212.357 47.8582 212.838 50.3421 212.838 53.3296C212.838 56.2379 212.369 58.6935 211.429 60.6965C210.501 62.6882 209.234 64.1989 207.627 65.2287C206.031 66.2472 204.243 66.7564 202.263 66.7564C200.86 66.7564 199.666 66.5244 198.681 66.0604C197.708 65.5965 196.91 65.0137 196.288 64.3121C195.666 63.5991 195.19 62.8806 194.862 62.1563H194.642V76.1093H187.41ZM194.489 53.2957C194.489 54.846 194.704 56.1983 195.134 57.3525C195.564 58.5068 196.186 59.4065 197.001 60.0515C197.816 60.6852 198.806 61.0021 199.972 61.0021C201.148 61.0021 202.144 60.6795 202.959 60.0345C203.774 59.3782 204.391 58.4729 204.809 57.3186C205.239 56.153 205.454 54.812 205.454 53.2957C205.454 51.7906 205.245 50.4666 204.826 49.3236C204.408 48.1807 203.791 47.2867 202.976 46.6417C202.161 45.9967 201.16 45.6741 199.972 45.6741C198.795 45.6741 197.799 45.9853 196.984 46.6077C196.181 47.2301 195.564 48.1128 195.134 49.2557C194.704 50.3987 194.489 51.7453 194.489 53.2957Z" fill="#FFFAFA"/>
</svg>
